<?xml version="1.0" encoding="UTF-8"?><svg id="Layer_1" xmlns="http://www.w3.org/2000/svg" viewBox="0 0 457.7 324.22"><path d="M233.55.42h0,0M228.85,39.09c7.01,18.98,22.04,34.11,40.99,41.23-18.94,7.12-33.98,22.24-40.99,41.23-7.01-18.98-22.04-34.11-40.99-41.23,18.94-7.12,33.98-22.24,40.99-41.23M228.85,0c-.14,0-.29.09-.29.28l-.44,16.46c-.92,34.23-28.33,61.82-62.55,62.97l-9.35.31c-.38.01-.38.57,0,.58l9.35.31c34.22,1.15,61.63,28.74,62.55,62.97l.44,16.46c0,.19.15.28.29.28s.29-.09.29-.28l.44-16.46c.92-34.23,28.33-61.82,62.55-62.97l9.35-.31c.38-.01.38-.57,0-.58l-9.35-.31c-34.22-1.15-61.63-28.74-62.55-62.97l-.44-16.46c0-.19-.15-.28-.29-.28h0Z" fill="#2e2a25"/><path d="M253.71,313.82c-12.77,13.93-39.18,13.81-50.63-.04l-203.08-.11,31.29-106.32,15.95-5.47,6.72-22.51,14.6-3.05,7.92-25.27c53.2-7.9,106.36,6.28,152.16,35.87,45.64-29.3,97.75-43.53,152.03-36.07l7.83,25.1,14.72,3.16,7.12,23.13,15.64,4.79,31.73,106.5-203.99.29ZM128.64,261.76c35.38,6.23,65.35,19.66,96.08,39.91l.3-108.42c-42.52-28.03-92.6-41.99-143.52-35.91l-27.41,104.81c26.24-4.64,49-4.76,74.56-.39ZM322.01,263.06c27.81-5.72,53.39-5.8,81.35-1.03l-27.53-104.78c-51.4-5.94-101.38,8.06-143.96,36.36l.31,108.39c29.44-19.35,56.96-32.13,89.83-38.94ZM45.14,270.55l21.41-85.37c-1.97-.78-7.02-.22-7.63,1.91l-27.28,95.97c50.9-8.32,100.12-5.7,152.05,4.13-42.81-22-89.35-26.24-138.55-16.64ZM425.61,282.74l-27.15-95.8c-1.74-2.26-6.16-3.26-7.5-1.02l20.98,85.02c-50.11-11-97.81-4.74-141.02,17.41,51.87-11.57,102.25-13.22,154.69-5.61ZM31.26,290.56l-5.9,1.06c-1.17.21-2.14-4.69-1.79-5.92l20.71-73.48c-1.82-.99-7.06.07-7.59,1.85l-27.3,91.46c63.9-14.76,124.9-14.12,188.73-6.01-53.71-15.98-111.02-18.42-166.85-8.96ZM259.16,299.57c65.11-8.4,125.93-8.54,188.86,5.95l-26.13-87.92-2.89-5.43c-.66-1.24-5.82.14-5.47,1.42l21,75.25c-3.03,5.03-8.44,1.56-12.69.91-54.48-8.3-110.95-5.81-162.69,9.81ZM185.04,306.21c-46.49-7.84-93.33-7.25-139.02.11l139.02-.11ZM409.77,306.34c-47.89-8.15-93.63-7.31-138.69.02l138.69-.02Z" fill="#2e2a25"/></svg>